<svg width="88" height="20" viewBox="0 0 88 20" fill="none" xmlns="http://www.w3.org/2000/svg">
<path d="M7.19805 8.04097H4.5945V19.7695H1.65912V8.04097H0V5.65941H1.65912V4.66069C1.65912 3.03884 2.08454 1.86086 2.93537 1.12676C3.80322 0.375586 5.15605 0 6.99385 0V2.43278C6.10898 2.43278 5.48787 2.6035 5.13052 2.94494C4.77317 3.26931 4.5945 3.84123 4.5945 4.66069V5.65941H7.19805V8.04097Z" fill="url(#paint0_linear_3_505)"/>
<path d="M11.2573 3.79001C10.7298 3.79001 10.2874 3.61076 9.93002 3.25224C9.57267 2.89373 9.39399 2.44985 9.39399 1.92061C9.39399 1.39138 9.57267 0.947503 9.93002 0.588989C10.2874 0.230474 10.7298 0.0512159 11.2573 0.0512159C11.7678 0.0512159 12.2017 0.230474 12.5591 0.588989C12.9164 0.947503 13.0951 1.39138 13.0951 1.92061C13.0951 2.44985 12.9164 2.89373 12.5591 3.25224C12.2017 3.61076 11.7678 3.79001 11.2573 3.79001ZM12.6867 5.65941V19.7695H9.77687V5.65941H12.6867Z" fill="url(#paint1_linear_3_505)"/>
<path d="M19.4169 7.70807C19.8424 6.99104 20.4039 6.43619 21.1016 6.04353C21.8163 5.6338 22.6586 5.42894 23.6286 5.42894V8.4507H22.8883C21.7482 8.4507 20.8804 8.74093 20.2848 9.32138C19.7062 9.90183 19.4169 10.9091 19.4169 12.3432V19.7695H16.5071V5.65941H19.4169V7.70807Z" fill="url(#paint2_linear_3_505)"/>
<path d="M39.1934 12.3688C39.1934 12.898 39.1594 13.376 39.0913 13.8028H28.3453C28.4304 14.9296 28.8473 15.8344 29.596 16.5173C30.3448 17.2002 31.2637 17.5416 32.3527 17.5416C33.9183 17.5416 35.0243 16.8843 35.671 15.5698H38.8106C38.3851 16.8673 37.6109 17.9343 36.4878 18.7708C35.3817 19.5903 34.0033 20 32.3527 20C31.0084 20 29.8002 19.7012 28.7282 19.1037C27.6731 18.4891 26.8393 17.6355 26.2267 16.5429C25.6311 15.4332 25.3334 14.1528 25.3334 12.7017C25.3334 11.2505 25.6226 9.97866 26.2012 8.88604C26.7968 7.77636 27.6221 6.92275 28.6771 6.32522C29.7492 5.7277 30.9744 5.42894 32.3527 5.42894C33.68 5.42894 34.8627 5.71916 35.9007 6.29962C36.9387 6.88007 37.747 7.69953 38.3256 8.758C38.9041 9.7994 39.1934 11.003 39.1934 12.3688ZM36.156 11.4469C36.1389 10.3713 35.7561 9.50918 35.0073 8.86044C34.2586 8.21169 33.3312 7.88732 32.2251 7.88732C31.2211 7.88732 30.3618 8.21169 29.6471 8.86044C28.9324 9.4921 28.507 10.3542 28.3708 11.4469H36.156Z" fill="url(#paint3_linear_3_505)"/>
<path d="M44.9669 7.75928C45.4603 7.0764 46.1325 6.52155 46.9833 6.09475C47.8512 5.65088 48.8126 5.42894 49.8677 5.42894C51.1099 5.42894 52.233 5.7277 53.237 6.32522C54.2409 6.92275 55.0322 7.77636 55.6108 8.88604C56.1894 9.97866 56.4786 11.2335 56.4786 12.6504C56.4786 14.0674 56.1894 15.3393 55.6108 16.4661C55.0322 17.5758 54.2324 18.4464 53.2114 19.0781C52.2075 19.6927 51.0929 20 49.8677 20C48.7786 20 47.8086 19.7866 46.9578 19.3598C46.124 18.933 45.4603 18.3867 44.9669 17.7209V19.7695H42.057V0.819462H44.9669V7.75928ZM53.5177 12.6504C53.5177 11.6773 53.3135 10.8408 52.9051 10.1408C52.5137 9.42382 51.9862 8.88604 51.3226 8.52753C50.676 8.15194 49.9783 7.96415 49.2295 7.96415C48.4978 7.96415 47.8001 8.15194 47.1365 8.52753C46.4899 8.90312 45.9623 9.44942 45.5539 10.1665C45.1626 10.8835 44.9669 11.7286 44.9669 12.7017C44.9669 13.6748 45.1626 14.5284 45.5539 15.2625C45.9623 15.9795 46.4899 16.5258 47.1365 16.9014C47.8001 17.277 48.4978 17.4648 49.2295 17.4648C49.9783 17.4648 50.676 17.277 51.3226 16.9014C51.9862 16.5087 52.5137 15.9454 52.9051 15.2113C53.3135 14.4772 53.5177 13.6236 53.5177 12.6504Z" fill="url(#paint4_linear_3_505)"/>
<path d="M72.2463 12.3688C72.2463 12.898 72.2123 13.376 72.1442 13.8028H61.3982C61.4833 14.9296 61.9002 15.8344 62.6489 16.5173C63.3976 17.2002 64.3165 17.5416 65.4056 17.5416C66.9711 17.5416 68.0772 16.8843 68.7238 15.5698H71.8634C71.438 16.8673 70.6637 17.9343 69.5406 18.7708C68.4346 19.5903 67.0562 20 65.4056 20C64.0613 20 62.8531 19.7012 61.781 19.1037C60.726 18.4891 59.8922 17.6355 59.2796 16.5429C58.684 15.4332 58.3862 14.1528 58.3862 12.7017C58.3862 11.2505 58.6755 9.97866 59.2541 8.88604C59.8497 7.77636 60.675 6.92275 61.73 6.32522C62.802 5.7277 64.0272 5.42894 65.4056 5.42894C66.7329 5.42894 67.9156 5.71916 68.9536 6.29962C69.9916 6.88007 70.7999 7.69953 71.3784 8.758C71.957 9.7994 72.2463 11.003 72.2463 12.3688ZM69.2088 11.4469C69.1918 10.3713 68.8089 9.50918 68.0602 8.86044C67.3115 8.21169 66.3841 7.88732 65.278 7.88732C64.274 7.88732 63.4146 8.21169 62.6999 8.86044C61.9852 9.4921 61.5598 10.3542 61.4237 11.4469H69.2088Z" fill="url(#paint5_linear_3_505)"/>
<path d="M88 12.3688C88 12.898 87.966 13.376 87.8979 13.8028H77.1519C77.237 14.9296 77.6539 15.8344 78.4026 16.5173C79.1513 17.2002 80.0702 17.5416 81.1593 17.5416C82.7248 17.5416 83.8309 16.8843 84.4775 15.5698H87.6171C87.1917 16.8673 86.4174 17.9343 85.2943 18.7708C84.1883 19.5903 82.8099 20 81.1593 20C79.815 20 78.6068 19.7012 77.5348 19.1037C76.4797 18.4891 75.6459 17.6355 75.0333 16.5429C74.4377 15.4332 74.1399 14.1528 74.1399 12.7017C74.1399 11.2505 74.4292 9.97866 75.0078 8.88604C75.6034 7.77636 76.4287 6.92275 77.4837 6.32522C78.5557 5.7277 79.781 5.42894 81.1593 5.42894C82.4866 5.42894 83.6693 5.71916 84.7073 6.29962C85.7453 6.88007 86.5536 7.69953 87.1321 8.758C87.7107 9.7994 88 11.003 88 12.3688ZM84.9625 11.4469C84.9455 10.3713 84.5626 9.50918 83.8139 8.86044C83.0652 8.21169 82.1378 7.88732 81.0317 7.88732C80.0277 7.88732 79.1684 8.21169 78.4537 8.86044C77.739 9.4921 77.3135 10.3542 77.1774 11.4469H84.9625Z" fill="url(#paint6_linear_3_505)"/>
<defs>
<linearGradient id="paint0_linear_3_505" x1="-0.00846366" y1="10.0009" x2="88" y2="10.0009" gradientUnits="userSpaceOnUse">
<stop stop-color="#459CD6"/>
<stop offset="0.2127" stop-color="#4898D3"/>
<stop offset="0.4331" stop-color="#528BCA"/>
<stop offset="0.6571" stop-color="#6377BC"/>
<stop offset="0.882" stop-color="#7B5AA8"/>
<stop offset="1" stop-color="#89489C"/>
</linearGradient>
<linearGradient id="paint1_linear_3_505" x1="-0.00846366" y1="10.0009" x2="88" y2="10.0009" gradientUnits="userSpaceOnUse">
<stop stop-color="#459CD6"/>
<stop offset="0.2127" stop-color="#4898D3"/>
<stop offset="0.4331" stop-color="#528BCA"/>
<stop offset="0.6571" stop-color="#6377BC"/>
<stop offset="0.882" stop-color="#7B5AA8"/>
<stop offset="1" stop-color="#89489C"/>
</linearGradient>
<linearGradient id="paint2_linear_3_505" x1="-0.00846366" y1="10.0009" x2="88" y2="10.0009" gradientUnits="userSpaceOnUse">
<stop stop-color="#459CD6"/>
<stop offset="0.2127" stop-color="#4898D3"/>
<stop offset="0.4331" stop-color="#528BCA"/>
<stop offset="0.6571" stop-color="#6377BC"/>
<stop offset="0.882" stop-color="#7B5AA8"/>
<stop offset="1" stop-color="#89489C"/>
</linearGradient>
<linearGradient id="paint3_linear_3_505" x1="-0.00846366" y1="10.0009" x2="88" y2="10.0009" gradientUnits="userSpaceOnUse">
<stop stop-color="#459CD6"/>
<stop offset="0.2127" stop-color="#4898D3"/>
<stop offset="0.4331" stop-color="#528BCA"/>
<stop offset="0.6571" stop-color="#6377BC"/>
<stop offset="0.882" stop-color="#7B5AA8"/>
<stop offset="1" stop-color="#89489C"/>
</linearGradient>
<linearGradient id="paint4_linear_3_505" x1="-0.00846366" y1="10.0009" x2="88" y2="10.0009" gradientUnits="userSpaceOnUse">
<stop stop-color="#459CD6"/>
<stop offset="0.2127" stop-color="#4898D3"/>
<stop offset="0.4331" stop-color="#528BCA"/>
<stop offset="0.6571" stop-color="#6377BC"/>
<stop offset="0.882" stop-color="#7B5AA8"/>
<stop offset="1" stop-color="#89489C"/>
</linearGradient>
<linearGradient id="paint5_linear_3_505" x1="-0.00846366" y1="10.0009" x2="88" y2="10.0009" gradientUnits="userSpaceOnUse">
<stop stop-color="#459CD6"/>
<stop offset="0.2127" stop-color="#4898D3"/>
<stop offset="0.4331" stop-color="#528BCA"/>
<stop offset="0.6571" stop-color="#6377BC"/>
<stop offset="0.882" stop-color="#7B5AA8"/>
<stop offset="1" stop-color="#89489C"/>
</linearGradient>
<linearGradient id="paint6_linear_3_505" x1="-0.00846366" y1="10.0009" x2="88" y2="10.0009" gradientUnits="userSpaceOnUse">
<stop stop-color="#459CD6"/>
<stop offset="0.2127" stop-color="#4898D3"/>
<stop offset="0.4331" stop-color="#528BCA"/>
<stop offset="0.6571" stop-color="#6377BC"/>
<stop offset="0.882" stop-color="#7B5AA8"/>
<stop offset="1" stop-color="#89489C"/>
</linearGradient>
</defs>
</svg>
